<?xml version="1.0" encoding="UTF-8"?>
<svg version="1.1" xmlns="http://www.w3.org/2000/svg" width="500" height="500">
<path d="M0 0 C0.68637039 -0.00350464 1.37274078 -0.00700928 2.07991028 -0.01062012 C4.35497067 -0.01944156 6.62972144 -0.01358569 8.90478516 -0.00683594 C10.48418233 -0.00818278 12.0635791 -0.01012348 13.64297485 -0.01263428 C16.95684752 -0.01558635 20.27061249 -0.01128643 23.58447266 -0.00195312 C27.83046769 0.00942289 32.07620938 0.00289431 36.32219505 -0.00909805 C39.58558047 -0.01633035 42.848906 -0.01402211 46.11229324 -0.00884247 C47.67757828 -0.00750879 49.24286876 -0.00914382 50.80814743 -0.01380157 C52.99854642 -0.01888728 55.18853758 -0.01112731 57.37890625 0 C58.62529877 0.00159119 59.87169128 0.00318237 61.15585327 0.00482178 C64.13928339 0.24437125 65.81535307 0.6862454 68.31884766 2.25878906 C65.69538274 4.00776567 63.82339172 4.87368297 60.88134766 5.82128906 C60.11951172 6.07007813 59.35767578 6.31886719 58.57275391 6.57519531 C56.49965586 7.20395122 54.42537522 7.7549499 52.31884766 8.25878906 C52.31884766 8.91878906 52.31884766 9.57878906 52.31884766 10.25878906 C50.84740497 11.54667149 49.31427616 12.76449233 47.75634766 13.94628906 C43.74195733 17.06100042 40.14859924 20.28828735 36.69384766 24.00878906 C35.31884766 25.25878906 35.31884766 25.25878906 33.31884766 25.25878906 C33.05072266 25.85691406 32.78259766 26.45503906 32.50634766 27.07128906 C31.31967359 29.2572676 30.22285653 30.672115 28.31884766 32.25878906 C27.65884766 32.25878906 26.99884766 32.25878906 26.31884766 32.25878906 C26.31884766 32.91878906 26.31884766 33.57878906 26.31884766 34.25878906 C25.65884766 34.25878906 24.99884766 34.25878906 24.31884766 34.25878906 C24.05587891 34.85949219 23.79291016 35.46019531 23.52197266 36.07910156 C22.2449039 38.3927521 21.11416223 39.48864473 19.06884766 41.13378906 C12.4146989 46.74052552 6.42750185 53.07291874 0.31884766 59.25878906 C1.30884766 61.23878906 1.30884766 61.23878906 2.31884766 63.25878906 C2.97884766 63.25878906 3.63884766 63.25878906 4.31884766 63.25878906 C5.67266915 64.74617142 6.95024651 66.30309457 8.19384766 67.88378906 C11.78442308 72.37200835 15.44046086 76.78092827 19.19384766 81.13378906 C20.20689921 82.31345019 21.21991982 83.49313787 22.23291016 84.67285156 C23.79508377 86.48991138 25.35909022 88.3052867 26.92724609 90.1171875 C28.47875115 91.91073113 30.02421339 93.70932806 31.56884766 95.50878906 C32.28596924 96.3322583 32.28596924 96.3322583 33.01757812 97.17236328 C36.31884766 101.03180074 36.31884766 101.03180074 36.31884766 103.25878906 C37.30884766 103.58878906 38.29884766 103.91878906 39.31884766 104.25878906 C41.10791016 106.21972656 41.10791016 106.21972656 42.94384766 108.63378906 C43.86037109 109.82101562 43.86037109 109.82101562 44.79541016 111.03222656 C46.31884766 113.25878906 46.31884766 113.25878906 47.31884766 116.25878906 C48.30884766 116.58878906 49.29884766 116.91878906 50.31884766 117.25878906 C51.85400391 118.85253906 51.85400391 118.85253906 53.38134766 120.75878906 C55.49606533 123.43985307 55.49606533 123.43985307 58.31884766 125.25878906 C58.31884766 125.91878906 58.31884766 126.57878906 58.31884766 127.25878906 C61.79589527 129.10059151 65.39319342 130.48704045 69.06884766 131.88378906 C70.82455078 132.5528125 70.82455078 132.5528125 72.61572266 133.23535156 C73.50775391 133.57308594 74.39978516 133.91082031 75.31884766 134.25878906 C75.31884766 134.91878906 75.31884766 135.57878906 75.31884766 136.25878906 C50.23884766 136.25878906 25.15884766 136.25878906 -0.68115234 136.25878906 C-0.68115234 135.59878906 -0.68115234 134.93878906 -0.68115234 134.25878906 C0.43259766 133.80503906 1.54634766 133.35128906 2.69384766 132.88378906 C6.28083774 131.5341292 6.28083774 131.5341292 8.31884766 129.25878906 C8.85616041 125.92744997 8.51956002 124.56768681 6.66650391 121.71582031 C5.91240234 120.843125 5.15830078 119.97042969 4.38134766 119.07128906 C3.14964844 117.63269531 3.14964844 117.63269531 1.89306641 116.16503906 C-1.93906276 111.8386292 -5.78953586 107.53179809 -9.68115234 103.25878906 C-11.04088582 101.76383347 -12.39553688 100.26422988 -13.74365234 98.75878906 C-14.59636719 97.81519531 -14.59636719 97.81519531 -15.46630859 96.85253906 C-16.68115234 95.25878906 -16.68115234 95.25878906 -16.68115234 93.25878906 C-17.34115234 93.25878906 -18.00115234 93.25878906 -18.68115234 93.25878906 C-20.18896484 91.50878906 -20.18896484 91.50878906 -21.80615234 89.25878906 C-22.34498047 88.51628906 -22.88380859 87.77378906 -23.43896484 87.00878906 C-23.84888672 86.43128906 -24.25880859 85.85378906 -24.68115234 85.25878906 C-28.52350183 86.8241907 -30.80141134 89.32692605 -33.68115234 92.25878906 C-34.58736328 92.93296875 -35.49357422 93.60714844 -36.42724609 94.30175781 C-41.61820602 98.38498657 -41.61820602 98.38498657 -44.00097656 104.34814453 C-44.07877363 113.21511251 -42.28450968 123.14652538 -36.17944336 129.92651367 C-34.38453823 131.52253734 -32.75721386 132.16703018 -30.49365234 132.94628906 C-29.77822266 133.19765625 -29.06279297 133.44902344 -28.32568359 133.70800781 C-27.78298828 133.88976562 -27.24029297 134.07152344 -26.68115234 134.25878906 C-26.68115234 134.91878906 -26.68115234 135.57878906 -26.68115234 136.25878906 C-49.78115234 136.25878906 -72.88115234 136.25878906 -96.68115234 136.25878906 C-96.68115234 135.59878906 -96.68115234 134.93878906 -96.68115234 134.25878906 C-95.81232422 134.01644531 -94.94349609 133.77410156 -94.04833984 133.52441406 C-83.3770675 130.66205542 -83.3770675 130.66205542 -75.68115234 123.25878906 C-74.90407501 116.99171086 -75.61775041 110.9009979 -77.01708984 104.77832031 C-78.68187235 97.29493799 -80.17011451 89.78670971 -81.61865234 82.25878906 C-81.81083344 81.26345657 -81.81083344 81.26345657 -82.00689697 80.24801636 C-84.31973829 68.26748399 -86.53838125 56.27091172 -88.68115234 44.25878906 C-89.27863281 46.05123047 -89.27863281 46.05123047 -89.88818359 47.87988281 C-93.07568359 57.44238281 -93.07568359 57.44238281 -93.8828125 59.85595703 C-94.40959247 61.44145197 -94.93023963 63.02899945 -95.44433594 64.61865234 C-96.73448027 68.58334245 -98.15796754 72.37820889 -99.84619141 76.19482422 C-102.31748159 82.30368014 -104.1618182 88.681563 -106.18896484 94.94824219 C-108.68087136 102.54770366 -111.48936985 109.92538845 -114.68115234 117.25878906 C-118.61358502 117.42662056 -122.5462413 117.58715668 -126.47924805 117.7409668 C-128.47444144 117.82052305 -130.46940245 117.90583912 -132.46435547 117.99121094 C-133.71796875 118.03955078 -134.97158203 118.08789062 -136.26318359 118.13769531 C-137.99918823 118.20839233 -137.99918823 118.20839233 -139.77026367 118.28051758 C-142.68115234 118.25878906 -142.68115234 118.25878906 -145.68115234 117.25878906 C-146.79297706 114.89843987 -147.70045411 112.64921454 -148.55615234 110.19628906 C-148.81444824 109.48327637 -149.07274414 108.77026367 -149.33886719 108.03564453 C-151.36884105 102.35445923 -153.17195473 96.60872345 -154.92895508 90.83837891 C-156.27297694 86.45478328 -157.81945832 82.23676624 -159.58349609 78.00878906 C-161.91111749 72.17731054 -163.89449009 66.21286468 -165.96728516 60.28710938 C-167.50055136 55.93061978 -169.08933239 51.59415753 -170.68115234 47.25878906 C-172.64826947 54.30907609 -173.61105259 61.38369558 -174.55615234 68.63378906 C-175.86992636 78.48990811 -177.29815555 88.31546883 -178.86865234 98.13378906 C-182.29115824 113.83581549 -182.29115824 113.83581549 -180.68115234 129.25878906 C-177.98603814 131.01180582 -174.97920087 131.89765571 -171.93115234 132.88378906 C-171.13193359 133.14417969 -170.33271484 133.40457031 -169.50927734 133.67285156 C-168.90599609 133.86621094 -168.30271484 134.05957031 -167.68115234 134.25878906 C-167.68115234 134.91878906 -167.68115234 135.57878906 -167.68115234 136.25878906 C-189.46115234 136.25878906 -211.24115234 136.25878906 -233.68115234 136.25878906 C-233.68115234 135.59878906 -233.68115234 134.93878906 -233.68115234 134.25878906 C-231.72802734 133.57519531 -229.77490234 132.89160156 -227.82177734 132.20800781 C-224.35532638 130.67087719 -222.21731524 129.29707277 -220.45068359 125.87597656 C-220.13486328 124.97105469 -219.81904297 124.06613281 -219.49365234 123.13378906 C-219.17009766 122.24433594 -218.84654297 121.35488281 -218.51318359 120.43847656 C-217.69394487 117.30767694 -217.29746119 114.27365621 -216.9831543 111.05761719 C-216.6121306 107.61912432 -216.12656488 104.20044416 -215.63037109 100.77832031 C-215.48131821 99.74621933 -215.48131821 99.74621933 -215.32925415 98.69326782 C-215.11898059 97.24013288 -214.90827549 95.78706032 -214.69717407 94.33404541 C-212.71270588 80.66564053 -210.81084102 66.98910671 -209.02563477 53.29321289 C-206.12205106 31.1405865 -206.12205106 31.1405865 -204.68115234 28.25878906 C-197.65195104 28.11566821 -190.62273413 27.97333323 -183.59350586 27.83154297 C-181.20255168 27.78322121 -178.81160111 27.73471996 -176.4206543 27.68603516 C-172.98275678 27.61606341 -169.54484673 27.54673846 -166.10693359 27.47753906 C-165.03905106 27.45566528 -163.97116852 27.4337915 -162.8709259 27.41125488 C-161.87026596 27.39123413 -160.86960602 27.37121338 -159.83862305 27.35058594 C-158.96148148 27.33282104 -158.0843399 27.31505615 -157.18061829 27.29675293 C-154.68037094 27.25877719 -152.18164601 27.25220121 -149.68115234 27.25878906 C-148.57417419 30.0702103 -147.47052111 32.88286558 -146.36865234 35.69628906 C-145.90555664 36.87094727 -145.90555664 36.87094727 -145.43310547 38.06933594 C-143.34269467 43.41638671 -141.46538906 48.80310917 -139.68115234 54.25878906 C-139.09816633 55.98981418 -138.51346641 57.72026283 -137.92724609 59.45019531 C-137.32435759 61.24055184 -136.72149322 63.0309165 -136.11865234 64.82128906 C-135.81507813 65.71525391 -135.51150391 66.60921875 -135.19873047 67.53027344 C-133.45122712 72.73471153 -131.9348671 77.91334855 -130.68115234 83.25878906 C-130.02115234 83.25878906 -129.36115234 83.25878906 -128.68115234 83.25878906 C-128.5603833 82.23930176 -128.43961426 81.21981445 -128.31518555 80.16943359 C-127.71213515 76.44988749 -126.79279332 73.23307708 -125.53662109 69.68847656 C-124.89176758 67.84769531 -124.89176758 67.84769531 -124.23388672 65.96972656 C-123.77920352 64.69094024 -123.32412406 63.41229475 -122.86865234 62.13378906 C-121.98496439 59.63195297 -121.10343831 57.12935218 -120.22412109 54.62597656 C-119.79276855 53.3984668 -119.36141602 52.17095703 -118.91699219 50.90625 C-117.39958986 46.42778481 -116.05545659 41.9092646 -114.7644043 37.36083984 C-113.42255048 33.5182447 -111.5013781 29.89924058 -109.68115234 26.25878906 C-89.88115234 26.25878906 -70.08115234 26.25878906 -49.68115234 26.25878906 C-49.35115234 37.47878906 -49.02115234 48.69878906 -48.68115234 60.25878906 C-44.44536442 58.15487965 -44.44536442 58.15487965 -42.68115234 54.25878906 C-42.02115234 54.25878906 -41.36115234 54.25878906 -40.68115234 54.25878906 C-40.47490234 53.70191406 -40.26865234 53.14503906 -40.05615234 52.57128906 C-38.50812951 49.96779611 -36.60559714 48.40692876 -34.25146484 46.53613281 C-31.22406942 44.07354996 -28.58380043 41.19872044 -25.88427734 38.38769531 C-24.94841797 37.42669922 -24.94841797 37.42669922 -23.99365234 36.44628906 C-23.12160156 35.53943359 -23.12160156 35.53943359 -22.23193359 34.61425781 C-20.68115234 33.25878906 -20.68115234 33.25878906 -18.68115234 33.25878906 C-18.35115234 32.26878906 -18.02115234 31.27878906 -17.68115234 30.25878906 C-17.02115234 30.25878906 -16.36115234 30.25878906 -15.68115234 30.25878906 C-15.68115234 29.59878906 -15.68115234 28.93878906 -15.68115234 28.25878906 C-15.02115234 28.25878906 -14.36115234 28.25878906 -13.68115234 28.25878906 C-13.68115234 27.59878906 -13.68115234 26.93878906 -13.68115234 26.25878906 C-12.36683861 25.23391971 -11.02914649 24.23893679 -9.68115234 23.25878906 C-5.82611618 19.5038837 -2.27664802 16.04527608 -0.55615234 10.88378906 C-0.46677911 8.02297851 -0.46677911 8.02297851 -2.68115234 5.25878906 C-4.64868063 4.19632379 -6.64702813 3.18741099 -8.68115234 2.25878906 C-5.84455083 -0.57781245 -3.97335169 0.005079 0 0 Z " fill="#070606" transform="translate(322.68115234375,178.7412109375)"/>
<path d="M0 0 C22.11 0 44.22 0 67 0 C67 0.66 67 1.32 67 2 C66.36191406 2.26554688 65.72382813 2.53109375 65.06640625 2.8046875 C64.24011719 3.15789062 63.41382813 3.51109375 62.5625 3.875 C61.73878906 4.22304687 60.91507812 4.57109375 60.06640625 4.9296875 C57.84253285 5.8244937 57.84253285 5.8244937 57 8 C56.34 8 55.68 8 55 8 C54.79503906 8.99902344 54.59007812 9.99804688 54.37890625 11.02734375 C54.10949219 12.31769531 53.84007812 13.60804688 53.5625 14.9375 C53.29566406 16.22527344 53.02882813 17.51304687 52.75390625 18.83984375 C52 22 52 22 51 23 C49.21915814 23.0641568 47.43570137 23.05696992 45.65405273 23.02172852 C44.5129454 23.00163223 43.37183807 22.98153595 42.19615173 22.96083069 C40.9545076 22.93379562 39.71286346 22.90676056 38.43359375 22.87890625 C37.16983414 22.85529526 35.90607452 22.83168427 34.60401917 22.80735779 C31.23868638 22.74357226 27.8735002 22.67538507 24.50830078 22.60510254 C21.07656782 22.53450157 17.6447271 22.4696354 14.21289062 22.40429688 C7.47514793 22.27484245 0.73753996 22.13958801 -6 22 C-6.33 21.34 -6.66 20.68 -7 20 C-4.69 13.4 -2.38 6.8 0 0 Z " fill="#070707" transform="translate(221,180)"/>
<path d="M0 0 C18.81 0 37.62 0 57 0 C63.11140584 15.27851459 63.11140584 15.27851459 63 22 C56.86177595 21.88134827 50.7237005 21.75707383 44.58569336 21.62768555 C42.49946146 21.58448866 40.41319767 21.54280342 38.3269043 21.50268555 C35.32070321 21.44461202 32.31466039 21.38102607 29.30859375 21.31640625 C28.38227646 21.29969376 27.45595917 21.28298126 26.50157166 21.26576233 C21.58074517 21.15428037 16.85529732 20.81648028 12 20 C11.48634073 17.65184332 11.02593129 15.35689651 10.8515625 12.95703125 C10.70186416 10.52149223 10.70186416 10.52149223 10 7 C8.31984841 5.61680413 8.31984841 5.61680413 6 5 C3.97048465 3.71203834 1.96498322 2.38442 0 1 C0 0.67 0 0.34 0 0 Z " fill="#0B0B0B" transform="translate(107,180)"/>
<path d="M0 0 C-1 1.5 -1 1.5 -3 3 C-5.71846235 3.27345479 -8.25677199 3.13491285 -11 3 C-11 2.34 -11 1.68 -11 1 C-3.57142857 -1.42857143 -3.57142857 -1.42857143 0 0 Z " fill="#3B3B3B" transform="translate(237,312)"/>
<path d="M0 0 C2.64 0.66 5.28 1.32 8 2 C8 2.66 8 3.32 8 4 C5.36 4 2.72 4 0 4 C-0.33 3.34 -0.66 2.68 -1 2 C-0.67 1.34 -0.34 0.68 0 0 Z " fill="#515151" transform="translate(147,311)"/>
<path d="M0 0 C-0.99 1.485 -0.99 1.485 -2 3 C-5.125 3.1875 -5.125 3.1875 -8 3 C-8 2.34 -8 1.68 -8 1 C-2.25 -1.125 -2.25 -1.125 0 0 Z " fill="#424242" transform="translate(97,312)"/>
</svg>
